<?xml version="1.0" encoding="utf-8"?>
<!-- Generator: Adobe Illustrator 17.0.0, SVG Export Plug-In . SVG Version: 6.00 Build 0)  -->
<!DOCTYPE svg PUBLIC "-//W3C//DTD SVG 1.1//EN" "http://www.w3.org/Graphics/SVG/1.1/DTD/svg11.dtd">
<svg version="1.1" id="Layer_1" xmlns="http://www.w3.org/2000/svg" xmlns:xlink="http://www.w3.org/1999/xlink" x="0px" y="0px"
	 width="256px" height="256px" viewBox="0 0 256 256" enable-background="new 0 0 256 256" xml:space="preserve">
<g id="layer3_4_" transform="translate(-92,-63.999774)">
	<g>
		<g id="layer5_9_">
			<path id="path2554_9_" fill="#444444" d="M228.852,113.839l-4.89,19.42c6.926-13.716,17.927-24.038,30.558-33.138
				c-9.235,10.729-17.655,21.459-22.816,32.188c8.692-12.224,20.372-19.014,33.545-23.496c-17.52,15.619-31.427,32.378-42.02,49.219
				l-8.42-3.666C216.302,140.921,221.382,127.15,228.852,113.839L228.852,113.839z"/>
			<path id="path2536_9_" fill="#444444" d="M222.397,157.206l5.776,2.946c-0.543,3.802,0.271,12.224,4.073,14.396
				c16.842,10.458,32.731,21.866,38.979,33.274c22.273,40.201-15.619,77.413-48.35,73.882c17.792-13.174,22.953-40.2,16.298-69.673
				c-2.716-11.544-6.927-22.002-14.398-33.818C221.539,172.413,222.669,165.22,222.397,157.206L222.397,157.206z"/>
		</g>
		<g id="layer4_9_">
			<path id="path2538_9_" fill="#444444" d="M219.616,156.213l11.951,1.63c-3.531,11.68,6.927,19.828,10.322,21.731
				c7.605,4.21,14.939,8.556,20.78,13.853c11.001,10.05,17.249,24.175,17.249,39.114c0,14.803-6.791,29.064-18.199,38.57
				c-10.729,8.964-25.532,12.767-39.929,12.767c-8.964,0-16.977-0.407-25.669-3.26c-19.828-6.655-34.632-23.631-35.855-44.004
				c-1.087-15.89,2.444-27.978,14.804-40.608c6.382-6.655,19.285-14.26,28.114-20.372c4.347-2.988,8.964-11.409,0.135-27.298
				l1.766-1.358l13.083,8.763l-11.046-4.553c0.951,1.358,3.531,7.47,4.075,9.235c1.222,5.025,0.679,9.916-0.408,12.087
				c-5.568,10.051-15.075,12.767-22.001,18.471c-12.224,10.05-25.533,18.063-24.04,45.633c0.679,13.581,11.273,30.15,27.162,37.892
				c8.964,4.347,19.286,6.112,29.744,6.655c9.371,0.408,27.298-5.161,37.077-13.31c10.458-8.691,16.298-21.866,16.298-35.311
				c0-13.582-5.433-26.484-15.619-35.584c-5.84-5.296-15.482-11.68-21.458-15.076c-5.976-3.395-13.446-12.902-11.001-22.001
				L219.616,156.213z"/>
			<path id="path2540_9_" fill="#444444" d="M215.95,176.314c-1.222,6.248-2.581,17.52-8.013,21.731
				c-2.309,1.629-4.618,3.26-7.063,4.889c-9.778,6.656-19.558,12.902-24.039,28.928c-0.951,3.396-0.135,7.063,0.68,10.458
				c2.444,9.778,9.371,20.372,14.803,26.62c0,0.271,1.087,0.951,1.087,1.222c4.482,5.297,5.84,6.791,22.816,10.593l-0.408,1.902
				c-10.186-2.716-18.606-5.16-23.903-11.273c0-0.135-0.951-1.087-0.951-1.087c-5.704-6.52-12.631-17.384-15.211-27.57
				c-0.951-4.075-1.765-7.198-0.679-11.409c4.617-16.568,14.668-23.088,24.854-30.014c2.309-1.494,5.025-2.853,7.198-4.618
				C211.332,193.563,213.64,184.055,215.95,176.314L215.95,176.314z"/>
			<path id="path2542_9_" fill="#444444" d="M220.293,202.117c0.136,7.063-0.553,10.605,1.212,15.631
				c1.086,2.987,4.755,7.062,5.842,11.001c1.494,5.297,3.121,11.137,2.983,14.668c0,4.075-0.255,11.677-2.02,19.827
				c-1.346,6.733-4.448,12.512-9.665,15.787c-5.343-1.1-11.617-2.979-15.321-6.153c-7.198-6.247-13.573-16.693-14.388-25.793
				c-0.678-7.469,6.238-18.485,15.88-24.053c8.148-4.753,10.044-10.171,11.809-18.863c-2.444,7.605-4.74,13.981-12.617,18.055
				c-11.408,5.976-17.262,16.007-16.719,25.514c0.814,12.223,5.71,20.505,15.352,27.161c4.074,2.852,11.686,5.866,16.439,6.681
				v-0.622c3.605-0.675,8.272-6.596,10.597-14.606c2.038-7.198,2.841-16.41,2.704-22.251c-0.136-3.395-1.634-10.748-4.351-17.403
				c-1.494-3.667-3.788-7.333-5.283-9.913C221.12,214.203,221.108,208.636,220.293,202.117z"/>
			<path id="path2544_9_" fill="#444444" d="M219.485,228.75c0.135,4.753,2.045,10.844,2.859,17.092
				c0.68,4.618,0.385,9.256,0.249,13.332c-0.134,4.717-1.706,13.169-3.853,17.278c-2.025-0.929-2.817-1.988-4.133-3.698
				c-1.629-2.309-2.735-4.618-3.822-7.334c-0.814-2.038-1.767-4.37-2.175-7.085c-0.543-4.074-0.391-10.448,4.226-16.968
				c3.531-5.161,4.34-5.554,5.563-11.529c-1.631,5.296-2.847,5.836-6.65,10.317c-4.209,4.89-4.91,12.092-4.91,17.931
				c0,2.445,0.975,5.158,1.927,7.738c1.086,2.717,2.018,5.422,3.512,7.458c2.245,3.302,5.119,5.18,6.526,5.532
				c0.009,0.002,0.022-0.002,0.031,0c0.03,0.007,0.065,0.025,0.093,0.031v-0.155c2.635-2.938,4.221-5.857,4.755-8.795
				c0.679-3.531,0.835-7.07,1.243-11.281c0.407-3.531,0.112-8.288-0.839-13.176C222.727,239.326,220.436,233.094,219.485,228.75
				L219.485,228.75z"/>
			<path id="path2550_9_" fill="#444444" d="M219.888,170.61c0.136,7.062,0.679,20.237,2.581,25.397
				c0.543,1.765,5.568,9.507,9.098,18.877c2.445,6.52,2.988,12.495,3.396,14.26c1.63,7.742-0.408,20.78-3.125,33.139
				c-1.357,6.655-5.976,14.939-11.272,18.199l-1.086,1.901c2.988-0.136,10.321-7.334,12.902-16.298
				c4.347-15.211,6.112-22.273,4.075-39.114c-0.271-1.631-0.951-7.198-3.531-13.174c-3.803-9.1-9.235-17.792-9.914-19.558
				C221.789,191.389,220.159,179.03,219.888,170.61L219.888,170.61z"/>
			<path id="path2552_9_" fill="#444444" d="M222.436,160.951c-0.403,7.258-0.511,9.93,0.847,15.227
				c1.494,5.84,9.1,14.26,12.224,23.903c5.976,18.471,4.482,42.646,0.135,61.523c-1.629,6.654-9.372,16.298-17.112,19.42
				l5.704,1.358c3.124-0.136,11.136-7.605,14.26-16.162c5.024-13.446,5.976-29.471,3.938-46.312
				c-0.136-1.63-2.853-16.162-5.433-22.273c-3.667-9.099-10.187-17.249-10.865-19.013
				C224.913,175.635,222.229,169.431,222.436,160.951L222.436,160.951z"/>
		</g>
	</g>
</g>
</svg>
