<?xml version="1.0" encoding="utf-8"?>
<!-- Generator: Adobe Illustrator 17.0.0, SVG Export Plug-In . SVG Version: 6.00 Build 0)  -->
<!DOCTYPE svg PUBLIC "-//W3C//DTD SVG 1.1//EN" "http://www.w3.org/Graphics/SVG/1.1/DTD/svg11.dtd">
<svg version="1.1" id="Layer_1" xmlns="http://www.w3.org/2000/svg" xmlns:xlink="http://www.w3.org/1999/xlink" x="0px" y="0px"
	 width="1000px" height="287.548px" viewBox="0 0 1000 287.548" enable-background="new 0 0 1000 287.548" xml:space="preserve">
<g id="_x31__1_">
	<g>
		<path fill="#FFFFFF" d="M96.764,102.288h47.64l27.165,141.049l21.215-141.049h48.38l-39.823,181.62h-60.289l-20.471-112.025
			l-20.471,112.025H39.823L0,102.288h48.38l21.215,141.049L96.764,102.288z"/>
		<path fill="#FFFFFF" d="M815.976,79.588c-5.336,5.21-11.722,7.813-19.169,7.813c-7.443,0-13.894-2.664-19.348-8
			c-5.462-5.332-8.187-11.779-8.187-19.352c0-7.565,2.725-14.016,8.187-19.356c5.454-5.332,11.909-8,19.348-8
			c7.443,0,13.833,2.672,19.169,8c5.332,5.34,8,11.852,8,19.539C823.977,67.927,821.308,74.378,815.976,79.588z M771.875,283.908
			v-181.62h49.873v181.62H771.875z"/>
		<path fill="#FFFFFF" d="M920.737,224.359l-27.539,59.549h-51.736l50.613-96.764l-47.266-84.855h54.339l21.581,54.335
			l21.585-54.335h54.339l-47.266,84.856L1000,283.908h-51.732L920.737,224.359z"/>
		<path fill="#FFFFFF" d="M686.434,96.76h-7.813c-15.635,0-30.96,6.15-35.027,14.833v-10.766h-44.74v10.819
			c16.269,20.499,23.322,45.59,23.322,72.715s-7.053,52.216-23.322,72.715v26.779h44.74V141.74c0-1.985,2.937-6.223,4.303-7.712
			c1.363-1.489,5.292-4.73,7.28-4.73h20.466c1.985,0,0.366,3.242,1.733,4.73c1.363,1.489-1.245,5.727-1.245,7.712v142.115h52.875
			V147.691C729.002,114.945,717.198,96.76,686.434,96.76z"/>
		<path fill="#FFFFFF" d="M370.923,184.365c0-24.184,7.04-47.656,18.917-66.793c-7.122-13.255-20.279-20.812-39.851-20.812h-7.813
			c-12.905,0-23.968,4.783-28.036,10.738V39.819h-56.942v244.036h56.942V140.996c0-4.466,0.366-11.697,4.588-11.697h20.471
			c1.985,0,5.893,3.242,7.264,4.73c1.358,1.489,4.283,5.727,4.283,7.712v142.115h44.74V259.28
			C375.149,238.391,370.923,212.458,370.923,184.365z"/>
	</g>
	<g>
		<path fill="#FFFFFF" d="M562.63,104.025V62.892C562.63,27.613,534.228,0,498.957,0h-5.328c-35.271,0-65.186,27.613-65.186,62.892
			v41.169c-22.569,19.084-36.915,47.587-36.915,79.458c0,57.454,46.574,104.029,104.029,104.029
			c57.454,0,104.029-46.575,104.029-104.029C599.581,151.628,585.219,123.108,562.63,104.025z M454.135,61.79h0.004
			c0-21.715,17.355-38.948,39.07-38.948h1.782c21.719,0,39.086,17.233,39.086,38.948v25.099
			c-11.917-4.755-24.908-7.398-38.525-7.398c-14.724,0-28.723,3.075-41.417,8.594V61.79z M494.958,248.083
			c-31.041,0-56.283-25.241-56.283-56.283c0-14.093,5.267-27.597,14.837-38.033l0.037-0.029l0.756-0.813l0.708-0.752
			c0.045-0.045,0.106-0.098,0.15-0.142l39.79-41.938l39.806,41.938h0.02c0.22,0.236,0.456,0.48,0.683,0.72l0.927,0.988l0.029,0.029
			c9.574,10.437,14.841,23.94,14.841,38.033C551.262,222.846,526.004,248.083,494.958,248.083z"/>
		<g>
			<path fill="#FFFFFF" d="M494.971,150.326c-22.908,0-41.478,18.57-41.478,41.478s18.57,41.478,41.478,41.478
				s41.478-18.57,41.478-41.478S517.879,150.326,494.971,150.326z M494.971,217.298c-14.08,0-25.494-11.414-25.494-25.494
				s11.414-25.494,25.494-25.494s25.494,11.414,25.494,25.494S509.051,217.298,494.971,217.298z"/>
			<circle fill="#FFFFFF" cx="494.971" cy="191.804" r="11.417"/>
		</g>
	</g>
</g>
</svg>
