<?xml version="1.0" encoding="utf-8"?>
<!-- Generator: Adobe Illustrator 17.0.0, SVG Export Plug-In . SVG Version: 6.00 Build 0)  -->
<!DOCTYPE svg PUBLIC "-//W3C//DTD SVG 1.1//EN" "http://www.w3.org/Graphics/SVG/1.1/DTD/svg11.dtd">
<svg version="1.1" id="Layer_1" xmlns="http://www.w3.org/2000/svg" xmlns:xlink="http://www.w3.org/1999/xlink" x="0px" y="0px"
	 width="256px" height="256px" viewBox="0 0 256 256" enable-background="new 0 0 256 256" xml:space="preserve">
<g>
	<polygon fill-rule="evenodd" clip-rule="evenodd" fill="#FFFFFF" points="104.587,86.752 104.298,67.058 116.016,60.196 
		133.415,48.478 140.567,48.189 148.007,56.186 152.018,82.764 146.582,92.478 124.014,91.898 104.587,86.752 	"/>
	<path fill-rule="evenodd" clip-rule="evenodd" fill="#FFD300" d="M136.289,99.339c0,0-1.426-0.29,2.562-1.159
		c4.01-0.846,4.032-1.693,5.146-2.852c1.136-1.136,1.716-3.72,1.716-6.572c0-2.851,1.426-11.139,1.136-13.411
		c-0.267-2.295-5.146-10.85-7.129-12.008c-2.005-1.136-24.284-3.141-24.284-3.141l-6.862,5.436l-5.146,4.834l1.159,15.439
		c0,0-1.448,4.857-1.159,6.839c0.29,2.005,3.163,4.3,4.3,5.436c1.136,1.159,5.414,5.748,6.839,7.152
		c1.448,1.426,1.738,2.851,5.146,1.715c3.431-1.136,5.436-1.136,8.02-3.141C130.296,101.901,136.289,99.339,136.289,99.339
		L136.289,99.339z"/>
	<path fill-rule="evenodd" clip-rule="evenodd" fill="#FFFFFF" d="M123.145,75.056c0.869-2.295,2.005-6.572,3.988-7.998
		c2.005-1.426,6.305-2.606,8.867-2.295c2.584,0.29,7.419,2.852,8.577,4.857c1.136,2.005,1.136,10.003,1.136,10.003l-0.579,6.572
		l-3.988-0.289l-8.577-3.431h-1.426c0,0-1.426,0.557-5.725-1.715C121.14,78.465,122.276,77.351,123.145,75.056L123.145,75.056z"/>
	<path fill-rule="evenodd" clip-rule="evenodd" fill="#FFFFFF" d="M114.011,81.339c0.133-0.133,0.401-0.312,0.757-0.512
		c1.738-0.958,5.525-2.361,5.525-2.361s3.698-9.402,0.557-13.122c-3.119-3.72-9.981-3.141-9.981-3.141s-7.419,4.277-7.151,5.993
		c0.289,1.716,0.579,7.708,0.869,8.555c0.267,0.869,1.426,10.003,1.426,10.003l2.562-1.136l3.72-2.852
		C112.295,82.764,113.164,82.207,114.011,81.339L114.011,81.339z"/>
	<path fill-rule="evenodd" clip-rule="evenodd" fill="#FFD300" d="M168.57,167.622c0,0,1.805,0.134,4.144,0.312
		c0.602,0.045,1.203,0.067,1.805,0.089c3.074,0.111,5.77,0.579,8.644,0.936c1.894,0.223,5.035,1.426,5.258,3.81
		c0.312,3.52-0.713,7.396,2.272,8.845c3.052,2.072,9.869,6.862,9.869,6.862l2.005,3.698l-5.993,5.436l-29.43,17.711l-13.411-4.567
		v-10.85l0.557-14.57l-1.426-13.144l2.273-5.146l5.725-1.716L168.57,167.622L168.57,167.622z"/>
	<path fill-rule="evenodd" clip-rule="evenodd" fill="#FFD300" d="M83.467,161.206c-0.29-0.268-5.503,1.27-5.837,1.337
		c-2.428,0.357-5.503,2.027-5.503,4.679c0,1.359-0.111,2.762-0.735,3.988c-0.49,0.958-1.604,2.406-1.582,2.718
		c-0.379,1.047-1.069,2.517-2.027,3.141c-1.114,0.111-6.06,0.557-6.06,0.557h-4.3l-2.562,3.119l2.005,8.31l-0.579,6.55l-1.983,7.441
		l4.834,2.562l36.581,9.713l8.287-2.562l4.277-10.582l-0.869-3.988l-3.988-7.998C103.429,190.19,86.052,164.949,83.467,161.206
		L83.467,161.206z"/>
</g>
<g>
	<path fill-rule="evenodd" clip-rule="evenodd" fill="#231F20" d="M199.203,187.294c-3.52-2.183-5.57-3.52-7.775-6.305
		c-2.206-2.785-2.339-4.834-2.339-7.04c0-2.206-1.025-3.52-1.916-0.446c-0.869,3.097,0.29,8.956,2.651,11.607
		c2.339,2.629,5.28,1.894,8.354,3.52c3.074,1.604,3.81,3.654,0.891,6.595c-2.941,2.941-8.51,4.255-13.813,6.015
		c-5.28,1.76-11.139,7.196-14.214,9.535c-3.097,2.339-9.112,3.386-13.055-0.29c-3.966-3.676-3.23-6.906-2.362-12.921
		c0.891-6.015,0.735-7.619-0.29-13.055c-1.025-5.414-1.181-4.834-1.025-10.85c0.156-6.015,2.629-6.906,4.99-6.75
		c0.203,0.013,0.393,0.002,0.576-0.019l0.003,0.005c0.364,1.749,1.19,3.59,2.362,5.294c7.04,10.27,16.419,1.181,21.699-4.389
		c5.28-5.592,4.122-10.716,2.05-21.565c-2.05-10.872-6.438-19.828-13.478-28.628c-7.062-8.8-9.691-14.659-13.79-22.3
		c-4.121-7.619-2.941-22.301-4.99-33.44c-2.072-11.161-12.186-19.672-28.316-19.36c-16.152,0.289-23.927,9.09-23.325,29.028
		c0.29,9.981,0.579,14.392,0.869,22.011c0.29,7.641,1.314,6.75-2.205,11.607c-3.52,4.835-1.314,2.049-6.305,9.223
		c-4.99,7.196-7.619,8.822-10.56,17.177c-2.941,8.354-5.436,13.79-8.221,18.781c-2.785,4.99-2.495,7.196-2.339,10.56
		c0.134,3.386,0.579,3.676,3.074,2.339c2.495-1.314,5.436-0.869,10.426,5.146c4.99,6.015,9.09,12.61,12.899,18.335
		c3.809,5.726,7.931,11.451,7.04,17.466c-0.869,6.015-3.81,11.005-14.526,8.221c-10.693-2.807-11.139-2.807-17.31-4.255
		c-6.149-1.47-12.766-3.23-16.419-4.122c-3.676-0.869-3.966-2.206-1.916-4.834c2.049-2.651,2.339-3.676,2.651-6.461
		c0.29-2.785-1.337-6.149-2.807-9.379c-1.448-3.23-0.29-5.146,2.495-5.146c2.807,0,3.832,1.025,8.377,0.29
		c4.545-0.735,4.835-5.57,5.414-7.33c0.602-1.76,0-7.04-2.05-0.29c-2.049,6.75-6.884,5.725-12.03,5.725
		c-5.124,0-5.859,5.57-3.965,11.005c1.916,5.414-0.29,9.535-1.159,12.164c-0.891,2.651-1.337,5.881,5.414,7.33
		c6.75,1.47,0.735,0.446,11.897,2.651c11.139,2.206,15.105,4.99,22.59,7.486c7.485,2.495,8.956,0,12.899-3.23
		c3.966-3.23,6.906-4.701,15.706-4.834c8.8-0.156,20.095,0,23.481,0.134c3.364,0.156,4.099-0.29,5.57,2.651
		c2.139,4.278,5.436,6.015,12.61,6.015c7.196,0,9.245-3.23,12.921-6.906c3.676-3.654,9.691-7.174,13.345-8.644
		c3.676-1.47,6.171-3.23,10.56-6.305C204.929,193.02,202.723,189.5,199.203,187.294z M149.3,94.683
		c0.958,1.092,1.916,1.96,4.032,2.785c2.139,0.802,2.139,1.604,1.248,3.587c-0.869,1.983-1.849,0.824-3.431-0.513
		c-0.847-0.69-1.404-0.958-2.362-3.23C148.007,95.463,148.342,93.57,149.3,94.683z M136.178,56.587
		c0.245-0.334,0.691-0.423,0.691-0.78c0.245-1.114,0.067-2.161,0.512-3.186c0.424-1.203,1.849-0.913,2.763-0.178
		c0.936,0.78,1.983,1.381,2.584,2.428c0.267,0.334,0.178,0.757-0.089,0.936c-0.936,0.602-2.161-0.089-3.008,0.445
		c-1.136,0.602-2.695,2.317-3.542,1.448C135.91,57.545,135.821,57.011,136.178,56.587z M89.75,128.167
		c0.49-0.958,0.334-2.072,1.025-2.762c0.223-0.245,1.337-0.468,1.448,0.223c0.223,1.27-0.201,2.584-1.203,3.498
		c-1.114,0.824-2.183,2.985-2.941,2.072C87.321,130.262,89.193,129.326,89.75,128.167z M152.396,173.459
		c0.446,8.51-0.134,11.339-0.134,17.221c0,5.859-1.337,10.56-1.916,15.996c-4.545,0.869-1.648-8.399-0.49-12.498
		c1.181-4.122,0.245-10.047-4.589-3.008c-4.857,7.062-13.545,7.864-21.61,8.02c-8.087,0.134-8.822-2.495-10.872-3.81
		c-2.05-1.337-3.476,0.022-1.114,1.782c2.339,1.76,4.211,8.332-0.646,11.117c2.362-4.834-0.579-8.644-6.015-15.996
		c8.666-3.81,6.617-9.09,0.735-13.345c-5.859-4.255-12.899-10.56-17.756-15.105c-4.834-4.544-4.99-7.931-5.414-9.825
		c-0.446-1.916-0.356-7.307,1.448-10.426c0.846-1.426,1.225-0.624,0.824,0.535c-0.401,1.159-0.824,3.364-0.958,6.505
		c-0.156,3.676,0.735,6.461,3.364,8.956c2.651,2.495,3.676,1.76,3.386-1.916c-0.29-3.654,0.445-9.98,1.025-13.055
		c0.579-3.074,4.255-12.61,6.461-15.84c2.183-3.23,2.918-3.52,2.629-6.305c-0.29-2.785-0.134-6.75,1.76-9.981
		c1.916-3.23,4.121-8.065,4.411-9.981c0.29-1.916,0.446-2.339,2.05-0.579c1.604,1.76,1.47,2.629,2.785,4.099
		c1.314,1.47,3.23,4.701,6.305,4.545c3.097-0.134,3.676-0.29,6.171-2.629c2.495-2.362,6.305-4.545,8.354-5.882
		c2.049-1.314,2.651-0.869,4.857-2.339c2.183-1.47,0.423-3.386-1.76-1.916c-2.205,1.47-9.245,4.545-12.03,5.592
		c-2.807,1.025-5.146,1.025-6.906,0.423c-1.76-0.579-1.604-1.025-3.676-2.495c-2.05-1.47-1.159-1.76,0.735-1.604
		c1.916,0.134-2.339,0,3.832,0.29c6.149,0.29,9.535-2.629,12.454-3.676c2.941-1.025,6.906-2.183,8.666-3.364
		c1.76-1.181-0.156-3.074-1.314-1.76c-1.181,1.314,0,1.181-3.386,2.339c-4.656,1.626-7.196,3.097-13.345,4.122
		c-6.171,1.025-8.666,0-10.137-2.206c-1.448-2.206-1.604-2.05-3.364-2.941c-1.76-0.869-0.891-4.255,1.314-5.726
		c2.205-1.448,2.941-2.629,4.857-3.943c1.894-1.337,2.049-1.47,2.339-3.386c0.29-1.894-1.314-4.834-2.339-5.725
		c-1.047-0.869-2.941-0.869-4.567,0.602c-1.604,1.448-0.579,6.305,0.891,7.463c1.47,1.181,2.206-0.134,0.735,2.495
		c-1.47,2.651-3.966-0.869-4.122-8.198c-0.134-7.352,5.146-9.401,8.221-7.642c3.097,1.76,3.386,6.305,3.52,8.51
		c0.156,2.206-0.579,3.52,1.471,3.386c2.049-0.156,1.47,0,3.52,0.134c2.05,0.156,3.23,1.916,2.651-1.159
		c-0.602-3.097,0.289-7.352,2.339-9.981c2.05-2.651,3.966-2.941,8.221-2.049c4.255,0.869,4.834,3.52,6.015,7.33
		c1.181,3.81,0.869,7.909-0.29,9.245c-1.181,1.314-3.52,0.133-3.965-0.602c-0.446-0.735,1.181-2.495,1.025-5.859
		c-0.156-3.386-4.545-4.99-7.196-3.81c-2.629,1.159-3.364,5.859-2.183,8.199c1.159,2.361,5.859,3.832,9.379,4.857
		c3.52,1.025,4.834,2.339,3.074,7.174c-1.76,4.857-0.29,7.641,3.097,11.896c3.364,4.255,4.99,11.741,5.703,14.526
		c0.735,2.785,4.122,7.33,6.906,13.924c2.785,6.617,2.25,14.437,2.25,19.627c0,5.168,2.05,4.099,4.3,4.099
		c2.25,0,4.122-1.56,5.191-5.48c1.069-3.899,0.78-10.047-1.292-16.486c-1.938-5.993-8.778-16.063-10.048-17.644
		c-0.846-1.047,0.401-0.535,0.824-0.29c4.745,2.517,9.802,12.766,11.295,16.508c3.208,8.109,1.671,15.483,0.49,19.583
		c-1.181,4.099-0.49,1.76,2.941,4.3c3.409,2.54,2.74,3.23-0.111,1.76c-2.829-1.47-5.569-1.76-9.379-0.869
		c-3.15,0.717-4.533,2.835-4.616,5.433l-0.001,0.003c-0.166-0.012-0.337-0.022-0.529-0.022
		C155.493,164.704,151.951,165.261,152.396,173.459z M112.117,74.922c0.089,0,0.245-0.178,0.334-0.089
		c0.579,0.423,1.003,1.136,1.225,1.76c0.245,1.203,0.936,2.362,0.379,3.386c-0.067,0.156-0.802,0.379-0.824-0.111
		c-0.267-1.27-0.379-2.874-1.649-3.587C111.538,75.702,111.204,74.989,112.117,74.922z M137.514,79.311
		c-0.178,0.312-1.025,0.334-1.047,0.022c-0.133-2.072-1.493-3.854-2.495-3.899c-1.092-0.067-0.468-1.003-0.29-1.092
		c0.713-0.089,1.27,0,1.805,0.267c0.802,0.357,1.76,1.181,1.938,1.983C137.648,77.574,137.982,78.487,137.514,79.311z"/>
	<path fill-rule="evenodd" clip-rule="evenodd" fill="#231F20" d="M118.088,82.341c-1.092-0.223-2.406-0.134-3.141,0.735
		c-0.289,0.29-0.156,1.114,0.357,1.337c0.668,0.29,1.114-0.379,1.248-0.891c0.067-0.223,0.156-0.512,0.379-0.579
		c0.29-0.156,0.713-0.022,1.025-0.156C118.311,82.653,118.177,82.341,118.088,82.341z"/>
	<path fill-rule="evenodd" clip-rule="evenodd" fill="#231F20" d="M123.791,82.252c-0.223,0-0.735-0.067-0.513,0.29
		c0.446,0.668,1.247,0.668,1.916,0.958c0.357,0.156,1.092,0.379,1.314-0.134C127.021,81.74,124.816,82.252,123.791,82.252z"/>
</g>
</svg>
