<?xml version="1.0" encoding="utf-8"?>
<!-- Generator: Adobe Illustrator 17.0.0, SVG Export Plug-In . SVG Version: 6.00 Build 0)  -->
<!DOCTYPE svg PUBLIC "-//W3C//DTD SVG 1.1//EN" "http://www.w3.org/Graphics/SVG/1.1/DTD/svg11.dtd">
<svg version="1.1" id="Layer_1" xmlns="http://www.w3.org/2000/svg" xmlns:xlink="http://www.w3.org/1999/xlink" x="0px" y="0px"
	 width="256px" height="256px" viewBox="0 0 256 256" enable-background="new 0 0 256 256" xml:space="preserve">
<path fill-rule="evenodd" clip-rule="evenodd" fill="#444444" d="M185.187,112.117c0,15.172,3.663,18.755,8.149,16.737
	c8.431-3.792,9.519-10.703,21.389-8.857c20.344,3.165,20.345,35.64,0,38.803c-11.872,1.845-12.959-5.065-21.389-8.857
	c-4.487-2.018-8.149,1.565-8.149,16.737v42.305h-42.304c-15.172,0-18.756-3.663-16.737-8.15c3.791-8.429,10.702-9.517,8.856-21.389
	c-3.163-20.344-35.638-20.343-38.803,0c-1.846,11.87,5.065,12.959,8.858,21.389c2.017,4.487-1.565,8.15-16.737,8.15H46.016V166.68
	c0-15.172,3.663-18.755,8.149-16.737c8.429,3.792,9.517,10.702,21.389,8.857c20.344-3.164,20.342-35.639,0-38.803
	c-11.872-1.846-12.96,5.065-21.389,8.857c-4.487,2.018-8.149-1.565-8.149-16.737V69.812H88.32c15.172,0,18.754-3.663,16.737-8.15
	c-3.792-8.429-10.703-9.518-8.858-21.388c3.165-20.343,35.64-20.345,38.803,0c1.846,11.871-5.065,12.959-8.856,21.388
	c-2.019,4.487,1.565,8.15,16.737,8.15h42.304V112.117z"/>
</svg>
